# xmcd
#
# Track frame offsets:
#	150
#	21093
#	41963
#	58183
#	76054
#	86562
#	100405
#	111424
#	129037
#	140313
#	162949
#
# Disc length: 2403 seconds
#
# Revision: 0
# Processed by: cddbd v1.5.1PL0 Copyright (c) Steve Scherf et al.
# Submitted via: dBpowerAMP V4.0
#
DISCID=8b09610b
DTITLE=Jim Almand - Power of the Spoken Word
DYEAR=1900
DGENRE=Country
TTITLE0=Roll The Dice
TTITLE1=Lilly And The Bone
TTITLE2=For The Longest Time
TTITLE3=Without You
TTITLE4=Jeffrey
TTITLE5=Shalako
TTITLE6=Power Of The Spoken Word
TTITLE7=Gypsy Eyes
TTITLE8=Up On The High Road
TTITLE9=Bums A+ Sunset
TTITLE10=Elena Marie
EXTD=
EXTT0=
EXTT1=
EXTT2=
EXTT3=
EXTT4=
EXTT5=
EXTT6=
EXTT7=
EXTT8=
EXTT9=
EXTT10=
PLAYORDER=
